# xmcd CD database file
#
# Track frame offsets:
#	150
#	13966
#	24753
#	34932
#	45211
#	54625
#	68948
#	79196
#	91636
#	101235
#	111471
#	125837
#	136349
#	144783
#	155097
#	166273
#	177553
#	187506
#
# Disc length: 2644 seconds
#
# Revision: 0
# Processed by: cddbd v1.5.2PL0 Copyright (c) Steve Scherf et al.
# Submitted via: Feurio! 1.68 - http://www.feurio.com
#
DISCID=ed0a5212
DTITLE=The Five Satins - In The Still Of The Night
DYEAR=1900
DGENRE=Doowop
TTITLE0=I'll Remember (In The Still Of The Night)
TTITLE1=Our Anniversary
TTITLE2=Wish I Had My Baby
TTITLE3=Wonderful Girl
TTITLE4=Sugar
TTITLE5=I'll Get Along
TTITLE6=Again
TTITLE7=To The Aisle
TTITLE8=Pretty Baby
TTITLE9=Our Love Is Forever
TTITLE10=Weeping Willow
TTITLE11=Moonlight And I
TTITLE12=The Jones Girl
TTITLE13=Oh Happy Day
TTITLE14=A Million To One
TTITLE15=A Love With No Love In Return
TTITLE16=Fred Parris and The Satins - A Night To Remember Ember
TTITLE17=Fred Parris and The Satins - Senorita Lolita
EXTD=Ember Records
EXTT0=
EXTT1=
EXTT2=
EXTT3=
EXTT4=
EXTT5=
EXTT6=
EXTT7=
EXTT8=
EXTT9=
EXTT10=
EXTT11=
EXTT12=
EXTT13=
EXTT14=
EXTT15=
EXTT16=
EXTT17=
PLAYORDER=
